# xmcd
#
# Track frame offsets:
# 150
# 8937
# 22742
# 36135
# 51175
# 65302
# 82068
# 99985
# 122644
# 143822
# 168845
# 187815
# 202900
# 220127
#
# Disc length: 3096 seconds
#
#
# Revision: 0
# Processed by: cddbd v1.5.2PL0 Copyright (c) Steve Scherf et al.
# Submitted via: FreeRIP 2.96 
#
DISCID=ae0c160e
DTITLE=Cephas and Wiggins - Cool Down
DYEAR=1995
DGENRE=Blues
TTITLE0=Action Man
TTITLE1=Man Without A Future
TTITLE2=Screaming and Crying
TTITLE3=No Ice In My Bourbon
TTITLE4=The Blues Will Do Your Heart Good
TTITLE5=Caroline In the Morning
TTITLE6=Backwater Blues
TTITLE7=Going To the River
TTITLE8=Cool Down
TTITLE9=Special Rider
TTITLE10=Hard Liqour
TTITLE11=Nine-Pound Hammer
TTITLE12=Right-Of-Way Blues
TTITLE13=Twelve Gates To the City
EXTD=Alligator Records
EXTT0=
EXTT1=
EXTT2=
EXTT3=
EXTT4=
EXTT5=
EXTT6=
EXTT7=
EXTT8=
EXTT9=
EXTT10=
EXTT11=
EXTT12=
EXTT13=
PLAYORDER=
